<?xml version="1.0" encoding="UTF-8" standalone="no"?>
<svg width="136px" height="135px" viewBox="0 0 136 135" version="1.1" xmlns="http://www.w3.org/2000/svg" xmlns:xlink="http://www.w3.org/1999/xlink" xmlns:sketch="http://www.bohemiancoding.com/sketch/ns">
    <!-- Generator: Sketch 3.3.2 (12043) - http://www.bohemiancoding.com/sketch -->
    <title>Untitled-1</title>
    <desc>Created with Sketch.</desc>
    <defs></defs>
    <g id="Page-1" stroke="none" stroke-width="1" fill="none" fill-rule="evenodd" sketch:type="MSPage">
        <g id="Untitled-1" sketch:type="MSLayerGroup" transform="translate(-0.734500, -2.657578)">
            <ellipse id="Oval" fill="#D05C8E" sketch:type="MSShapeGroup" cx="68.4868245" cy="70.0798745" rx="67.3693973" ry="67.3693973"></ellipse>
            <g id="Group" transform="translate(28.651979, 28.651979)" fill="#FFFFFF" sketch:type="MSShapeGroup">
                <path d="M35.8264341,42.7659433 L6.429504,42.7659433 C5.34932441,42.7659433 4.37229194,43.4163432 3.95970344,44.413432 C3.54424975,45.4133861 3.77346558,46.5623304 4.53847341,47.3273383 L15.4577425,58.2466073 L2.65030802,71.0540417 C0.561578781,73.1399058 0.561578781,76.5237045 2.65030802,78.6124337 C3.69324004,79.6553657 5.06280462,80.1768317 6.429504,80.1768317 C7.79620338,80.1768317 9.16576796,79.6553657 10.2087,78.6124337 L23.0161344,65.8049993 L33.9354035,76.7242683 C34.4454087,77.2342735 35.130191,77.5064673 35.8235689,77.5064673 C36.1673926,77.5064673 36.5140815,77.4405678 36.8464445,77.3030383 C37.8463985,76.8904498 38.4967985,75.9134173 38.4967985,74.8332377 L38.4967985,45.4363077 C38.4996637,43.9607308 37.3048761,42.7659433 35.8264341,42.7659433 L35.8264341,42.7659433 Z" id="Shape"></path>
                <path d="M77.0165185,4.24622323 C74.9277893,2.15749399 71.5468558,2.15749399 69.4581265,4.24622323 L56.6506921,17.0536577 L45.7314231,6.13438862 C44.9664152,5.36938079 43.8232013,5.14303016 42.820382,5.55561865 C41.820428,5.97107234 41.1700281,6.94523961 41.1700281,8.02541921 L41.1700281,37.4194841 C41.1700281,38.895061 42.3648156,40.0927137 43.8432577,40.0927137 L73.2373225,40.0927137 L73.2888961,40.0927137 C74.764473,40.0927137 75.9621257,38.8979262 75.9621257,37.4194841 C75.9621257,36.5198119 75.51802,35.7232869 74.8361029,35.2390685 L64.2090841,24.6120496 L77.0165185,11.8046152 C79.1052477,9.71875114 79.1052477,6.33208727 77.0165185,4.24622323 L77.0165185,4.24622323 Z" id="Shape"></path>
            </g>
        </g>
    </g>
</svg>