<?xml version="1.0" encoding="UTF-8" standalone="no"?>
<svg width="136px" height="136px" viewBox="0 0 136 136" version="1.1" xmlns="http://www.w3.org/2000/svg" xmlns:xlink="http://www.w3.org/1999/xlink" xmlns:sketch="http://www.bohemiancoding.com/sketch/ns">
    <!-- Generator: Sketch 3.3.2 (12043) - http://www.bohemiancoding.com/sketch -->
    <title>Oval + Shape</title>
    <desc>Created with Sketch.</desc>
    <defs></defs>
    <g id="Page-1" stroke="none" stroke-width="1" fill="none" fill-rule="evenodd" sketch:type="MSPage">
        <g id="Oval-+-Shape" sketch:type="MSLayerGroup" transform="translate(-1.184144, -0.441749)">
            <ellipse id="Oval" fill="#75AC81" sketch:type="MSShapeGroup" cx="69.320597" cy="68.3578906" rx="67.3693973" ry="67.3693973"></ellipse>
            <path d="M104.445058,58.9256592 C103.576903,60.7049471 101.920818,63.4784586 99.439557,67.4066449 C103.783197,74.1541858 106.556708,80.6467242 107.714248,86.6894265 C108.871788,92.7292636 107.797339,98.0241492 104.488036,101.502499 C101.840593,104.149942 98.1989263,105.473664 93.3567419,105.473664 C87.6062898,105.473664 81.0679083,103.571172 73.5381683,99.6802336 C72.6700133,99.3077579 71.3434267,98.6057844 69.5670041,97.571448 C61.0430404,102.906446 52.6852583,105.806027 45.7342883,105.806027 C40.9751946,105.806027 37.2934154,104.47944 34.6459725,101.831997 C31.047284,98.1931959 29.8467661,92.8983102 30.9641933,86.855608 C31.9985297,80.8157709 34.7720412,74.3604801 39.155794,67.4066449 C37.4194841,65.0084743 35.7633997,62.2349627 34.1073153,58.9256592 C31.6661668,53.8370678 30.4255361,49.1581997 30.3825581,45.8488962 C30.2593546,42.5395926 31.0845316,39.5597869 32.2850495,37.6572955 C32.8237067,36.7031846 33.5686581,35.8350296 34.3537224,35.130191 C36.9610524,32.3165667 40.8921039,30.9126197 46.2700803,30.9126197 C53.0978468,30.9126197 61.2493347,33.4741066 69.2747539,38.026906 C77.3832638,33.4741066 85.5347517,30.9126197 92.3625182,30.9126197 C97.2448154,30.9126197 101.175867,32.3165667 104.278876,35.130191 C105.891983,36.6200939 107.0925,38.3191562 107.797339,41.213006 C108.499313,44.1097211 108.499313,47.1726176 107.30166,51.7225518 C106.679912,54.0404969 105.771644,56.4014199 104.571126,58.965772 L104.445058,58.9256592 L104.445058,58.9256592 Z M40.7259224,48.4132483 C41.1814889,50.1495582 41.9665531,52.0549147 43.0008895,54.2897691 C43.3332524,54.9946077 43.8289317,55.9057407 44.3246109,56.7309176 C44.5309052,57.1893493 44.7371994,57.5589598 44.8632681,57.9314355 C46.7657595,55.5332649 48.7542068,53.2582978 50.9861959,51.0205783 C53.304141,48.7054984 55.7023116,46.5107569 58.3497544,44.4019712 C53.5906608,42.2502077 49.4132023,41.213006 45.6483323,41.213006 C43.5366815,41.213006 41.6771681,41.7516632 41.1385109,42.5395926 C40.1872652,43.3246569 39.8147895,44.9406284 40.6829444,48.3760007 L40.7259224,48.4132483 L40.7259224,48.4132483 Z M41.3877831,94.0930977 C41.8834623,94.7979364 43.124093,95.1675469 45.1125403,95.1675469 C48.9203883,95.1675469 53.636504,93.6375313 59.3869561,90.6577255 C57.6076682,89.2537786 55.2897231,87.016059 52.2296918,84.0391185 C49.7455653,81.5549919 47.5135761,79.0336178 45.3618125,76.3833098 C43.0438675,80.7298149 41.4307611,84.7410919 40.8118783,87.8011232 C40.1500176,90.8640198 40.3563119,93.1389869 41.3906483,94.1733233 L41.3906483,94.0930977 L41.3877831,94.0930977 Z M59.9227481,76.9649449 C62.3237839,79.5321622 65.3007244,82.1366271 68.9423909,84.9101386 C71.7560152,82.758375 74.735821,80.1539102 77.9620338,77.0079229 C79.1195737,75.807405 80.3200916,74.4808184 81.5206095,73.0338935 C82.7211274,71.6270813 83.4660789,70.6758356 84.7898003,69.0627292 C85.4115482,68.2346871 85.9473402,67.6129391 86.319816,67.1573727 C84.0018709,63.8881819 81.5206095,61.0315796 78.9132795,58.4271148 C76.3460622,55.6134905 72.9966459,52.8428441 68.8163222,49.9432639 C65.38095,52.3442997 62.0315337,55.157924 58.7623429,58.4271148 C55.2037672,62.3151883 52.8027314,65.2147685 51.3558065,67.1573727 C52.1408707,68.1086183 54.3356122,70.8391519 55.4530394,72.1198954 C56.4873758,73.446482 58.2666637,75.4721769 59.7565666,76.9620797 L59.9227481,76.9620797 L59.9227481,76.9649449 Z M63.3180075,62.6045733 C66.4210168,59.501564 71.4694954,59.501564 74.5725047,62.6045733 C77.675514,65.7104477 77.675514,70.7560612 74.5725047,73.8619357 C71.4694954,76.9649449 66.4210168,76.9649449 63.3180075,73.8619357 C60.212133,70.7560612 60.212133,65.7104477 63.3180075,62.6045733 L63.3180075,62.6045733 Z M92.9011754,95.2535029 C94.4741691,95.2535029 96.0872755,94.7148457 96.6259327,94.1733233 C97.6602691,93.1389869 97.8264506,90.8640198 97.2047026,87.8011232 C96.5428419,84.8241827 94.9297355,80.8931312 92.6117905,76.7156727 C91.6175668,77.9133254 90.2537326,79.4462063 89.259509,80.4776775 C88.2652853,81.5148791 86.6521789,83.251189 85.7009332,84.2826603 C84.1279396,85.8986319 81.729769,88.087643 78.500691,90.9041325 C84.7496875,93.7177568 89.4658032,95.1646817 92.7751067,95.1646817 L92.9011754,95.2535029 L92.9011754,95.2535029 Z M93.0644917,41.255984 C92.6089253,41.255984 92.2364495,41.213006 91.7837483,41.213006 C87.8928096,41.213006 83.6723731,42.3304332 79.0823262,44.6483783 C81.729769,46.7600291 84.2138955,48.9547706 86.4888626,51.2698505 C88.723717,53.5047049 90.7494118,55.736694 92.5716777,58.1807078 C93.6060141,56.4014199 94.3509656,55.0748333 94.6833285,54.2066783 C96.6689106,49.8601732 97.45684,46.2614847 97.2906586,44.442084 C97.1674551,43.5710639 96.9181828,42.9521811 96.5457071,42.5797054 C96.2133442,42.2473425 95.7606429,41.9980702 95.138895,41.7946412 C94.517147,41.5883469 93.7750608,41.4193003 92.9871314,41.298962 L93.0644917,41.255984 L93.0644917,41.255984 Z" id="Shape" fill="#FFFFFF" sketch:type="MSShapeGroup"></path>
        </g>
    </g>
</svg>