<?xml version="1.0" encoding="UTF-8" standalone="no"?>
<svg width="135px" height="136px" viewBox="0 0 135 136" version="1.1" xmlns="http://www.w3.org/2000/svg" xmlns:xlink="http://www.w3.org/1999/xlink" xmlns:sketch="http://www.bohemiancoding.com/sketch/ns">
    <!-- Generator: Sketch 3.3.2 (12043) - http://www.bohemiancoding.com/sketch -->
    <title>Oval + Shape</title>
    <desc>Created with Sketch.</desc>
    <defs></defs>
    <g id="Page-1" stroke="none" stroke-width="1" fill="none" fill-rule="evenodd" sketch:type="MSPage">
        <g id="Oval-+-Shape" sketch:type="MSLayerGroup" transform="translate(-1.429107, -0.441749)">
            <ellipse id="Oval" fill="#5FB0D5" sketch:type="MSShapeGroup" cx="68.8621654" cy="68.3593232" rx="67.3693973" ry="67.3693973"></ellipse>
            <path d="M81.4461144,93.5444124 L81.4461144,108.644005 L71.3806743,108.644005 L71.3806743,98.578565 L66.3465217,98.578565 L66.3465217,108.644005 L43.6971326,108.644005 L43.6971326,98.578565 L38.6629799,98.578565 L38.6629799,108.644005 L28.5975398,108.644005 L28.5975398,93.0344071 C28.5975398,87.2524379 32.6088169,83.4789723 38.6629799,83.4789723 L71.3778091,83.4789723 C77.4348374,83.4789723 81.4461144,87.4902493 81.4461144,93.5444124 L81.4461144,93.5444124 Z M71.1829757,68.3793795 C67.5642308,74.5939937 61.03731,78.4448196 53.7625727,78.4448196 C46.4907005,78.4448196 39.9609146,74.5939937 36.3450349,68.3793795 C32.72629,62.1647654 32.72629,54.4602483 36.3450349,48.2484994 C39.9609146,42.0338852 46.4907005,38.1830593 53.7625727,38.1830593 C61.03731,38.1830593 67.5642308,42.0338852 71.1829757,48.2484994 C74.8017206,54.4631135 74.8017206,62.1647654 71.1829757,68.3793795 L71.1829757,68.3793795 Z M98.8665174,58.3139395 C95.2477725,64.5285536 88.7208518,68.3793795 81.4461144,68.3793795 C80.4633515,68.3793795 79.007831,68.1816809 76.9649449,67.8693743 C78.3402399,64.6030488 78.9705834,61.4570615 78.9705834,58.3139395 C78.9705834,48.8759777 73.664237,40.3033057 65.641683,35.862249 C69.2203151,31.0229298 74.9994192,28.0746412 81.4862272,28.0746412 C88.7609645,28.0746412 95.2878853,31.9254672 98.9066302,38.1400813 C102.52251,44.3546955 102.52251,52.0592125 98.9066302,58.2709615 L98.8665174,58.3139395 L98.8665174,58.3139395 Z M109.126791,84.7367941 L109.126791,98.578565 L99.0613508,98.578565 L99.0613508,88.5131249 L94.0271982,88.5131249 L94.0271982,98.578565 L86.4774018,98.578565 L86.4774018,93.5444124 C86.4774018,84.6966814 80.2255401,78.4448196 71.3778091,78.4448196 L68.8621654,78.4448196 C70.8305563,76.9520515 72.4809103,75.2988324 73.896318,73.410667 L97.803529,73.410667 C104.132751,73.4135322 109.126791,78.4075721 109.126791,84.7367941 L109.126791,84.7367941 Z" id="Shape" fill="#FFFFFF" sketch:type="MSShapeGroup"></path>
        </g>
    </g>
</svg>