<?xml version="1.0" encoding="UTF-8" standalone="no"?>
<svg width="62px" height="62px" viewBox="0 0 62 62" version="1.1" xmlns="http://www.w3.org/2000/svg" xmlns:xlink="http://www.w3.org/1999/xlink" xmlns:sketch="http://www.bohemiancoding.com/sketch/ns">
    <!-- Generator: Sketch 3.3.3 (12081) - http://www.bohemiancoding.com/sketch -->
    <title>datascience</title>
    <desc>Created with Sketch.</desc>
    <defs></defs>
    <g id="Page-1" stroke="none" stroke-width="1" fill="none" fill-rule="evenodd" sketch:type="MSPage">
        <g id="Artboard-1" sketch:type="MSArtboardGroup" transform="translate(-311.000000, -226.000000)">
            <g id="datascience" sketch:type="MSLayerGroup" transform="translate(311.000000, 226.000000)">
                <circle id="Oval-2-Copy" fill="#FF8E00" sketch:type="MSShapeGroup" cx="31" cy="31" r="31"></circle>
                <g id="noun_16391_cc" transform="translate(13.000000, 11.000000)" fill="#FFFFFF" sketch:type="MSShapeGroup">
                    <g id="Group">
                        <ellipse id="Oval" cx="17.6866392" cy="4.58974725" rx="17.5777732" ry="4.50369231"></ellipse>
                        <path d="M17.6326598,19.7065824 C19.7482887,19.7065824 21.1998351,19.6714396 21.5799588,19.6178242 C21.7069691,18.1607473 22.4672165,15.4628571 24.8940206,13.5381099 C26.1618557,12.6207912 28.2443711,11.019989 32.1558351,11.416022 C32.5418557,11.5124396 33.8759175,11.6138132 35.2340206,12.3513626 C35.2340206,12.0274176 35.2644124,6.95513187 35.2644124,6.95513187 C35.2644124,6.95513187 35.210433,11.8066484 17.6866392,11.8066484 C0.163298969,11.8066484 0.109319588,6.95513187 0.109319588,6.95513187 L0.109319588,13.4448462 C0.109319588,13.4448462 0.109319588,19.7065824 17.6326598,19.7065824 L17.6326598,19.7065824 Z" id="Shape"></path>
                        <path d="M17.6326598,30.3152198 C24.1836701,30.3152198 24.9058144,30.0318242 27.1756701,29.3122967 C25.3467216,28.394978 24.2780206,27.4055714 23.0106392,25.7867473 C22.3220619,24.6536154 21.9237938,23.825956 21.5618144,21.775956 C20.8192577,21.8656154 19.7927423,21.8773297 17.6866392,21.8773297 C0.163298969,21.8773297 0.109319588,16.1643626 0.109319588,16.1643626 L0.109319588,23.6461868 C0.109319588,23.6457363 0.109319588,30.3152198 17.6326598,30.3152198 L17.6326598,30.3152198 Z" id="Shape"></path>
                        <path d="M30.181732,30.0138022 C29.9435876,30.0967033 28.336,32.3300769 17.6866392,32.3300769 C0.163298969,32.3300769 0.0848247423,26.3089341 0.0848247423,26.3089341 L0.108865979,34.1246154 C0.108865979,34.1246154 0.108865979,40.8670879 17.6322062,40.8661868 C35.1555464,40.8661868 35.2639588,34.2093187 35.2639588,34.2093187 C35.2639588,34.2093187 35.2698557,29.3262637 35.2698557,29.0252967 C33.4595052,29.8880989 31.8478351,30.139956 30.181732,30.0138022 L30.181732,30.0138022 Z" id="Shape"></path>
                        <path d="M43.5618144,30.8193846 L40.1434227,27.269956 L36.8098557,25.8272967 C38.0169072,24.449967 38.6596701,22.759956 38.6982268,21.0253407 C38.7390515,19.119967 38.0414021,17.2006264 36.595299,15.6993956 C35.1800412,14.2328571 33.2798763,13.4894505 31.3293608,13.4470989 C27.2954227,13.3601429 23.7903918,16.6928571 23.703299,20.7009451 C23.6139381,24.7414725 26.9007835,28.2197143 30.9714639,28.3075714 C32.7192165,28.3454176 34.4787629,27.7844835 35.9176082,26.6454945 L37.221732,30.0471429 L40.643299,33.5641319 C40.9721649,33.8376154 41.4067216,33.9808901 41.8430928,33.9903516 C42.9199588,34.0133297 43.9147216,33.1325055 43.9387629,32.0304615 C43.9491959,31.5961319 43.8230928,31.1924396 43.5618144,30.8193846 L43.5618144,30.8193846 Z M34.3889485,24.1701758 C33.4626804,25.0532527 32.2755876,25.4605495 31.0653608,25.4344176 C28.6117938,25.3817033 26.5383505,23.2654725 26.5941443,20.7622198 C26.6472165,18.3224945 28.7791753,16.2648352 31.2663093,16.318 C33.8223918,16.3743187 35.862268,18.4891978 35.8069278,20.9618132 C35.7819794,22.1305385 35.2848247,23.288 34.3889485,24.1701758 L34.3889485,24.1701758 Z" id="Shape"></path>
                    </g>
                </g>
            </g>
        </g>
    </g>
</svg>