<?xml version="1.0" encoding="UTF-8" standalone="no"?>
<svg width="62px" height="62px" viewBox="0 0 62 62" version="1.1" xmlns="http://www.w3.org/2000/svg" xmlns:xlink="http://www.w3.org/1999/xlink" xmlns:sketch="http://www.bohemiancoding.com/sketch/ns">
    <!-- Generator: Sketch 3.3.3 (12081) - http://www.bohemiancoding.com/sketch -->
    <title>labdesign</title>
    <desc>Created with Sketch.</desc>
    <defs></defs>
    <g id="Page-1" stroke="none" stroke-width="1" fill="none" fill-rule="evenodd" sketch:type="MSPage">
        <g id="Artboard-1" sketch:type="MSArtboardGroup" transform="translate(-225.000000, -225.000000)">
            <g id="labdesign" sketch:type="MSLayerGroup" transform="translate(225.000000, 225.000000)">
                <circle id="Oval-2" fill="#50E3C2" sketch:type="MSShapeGroup" cx="31" cy="31" r="31"></circle>
                <g id="test-tube8" transform="translate(13.000000, 12.000000)" fill="#FFFFFF" sketch:type="MSShapeGroup">
                    <path d="M36.5058768,9.39450476 L26.781803,0.515352381 C26.2674483,0.0456 25.4680296,0.0741904762 24.9890345,0.579409524 L24.6888424,0.89607619 C24.2020099,1.40961905 24.2313547,2.2192 24.7542759,2.69655238 L24.9635172,2.88745714 L1.55235961,27.5791333 C0.52620197,28.6612286 -0.00911330049,30.0753714 0.0448374384,31.5606286 C0.0987881773,33.0458857 0.735261084,34.4180476 1.83705911,35.4241429 L3.01796059,36.502619 C4.04703448,37.4421238 5.38304433,37.9594667 6.78029557,37.9594667 C8.3073202,37.9594667 9.78312808,37.3266762 10.8291527,36.2232286 L34.3283448,11.4387238 L34.4783498,11.5757048 C34.9927044,12.0454571 35.7921232,12.0168667 36.2711182,11.5116476 L36.5713103,11.194981 C37.0581429,10.6814381 37.028798,9.87185714 36.5058768,9.39450476 L36.5058768,9.39450476 Z M22.5734631,21.1964 L13.9664975,17.1260571 L25.9732709,4.46246667 L32.6549606,10.5636381 L22.5734631,21.1964 L22.5734631,21.1964 Z" id="Shape"></path>
                </g>
            </g>
        </g>
    </g>
</svg>