<?xml version="1.0" encoding="UTF-8" standalone="no"?>
<svg width="136px" height="136px" viewBox="0 0 136 136" version="1.1" xmlns="http://www.w3.org/2000/svg" xmlns:xlink="http://www.w3.org/1999/xlink" xmlns:sketch="http://www.bohemiancoding.com/sketch/ns">
    <!-- Generator: Sketch 3.3.2 (12043) - http://www.bohemiancoding.com/sketch -->
    <title>Oval + Shape</title>
    <desc>Created with Sketch.</desc>
    <defs></defs>
    <g id="Page-1" stroke="none" stroke-width="1" fill="none" fill-rule="evenodd" sketch:type="MSPage">
        <g id="Oval-+-Shape" sketch:type="MSLayerGroup" transform="translate(-1.100508, -2.093727)">
            <ellipse id="Oval" fill="#F0C837" sketch:type="MSShapeGroup" cx="69.0111557" cy="69.9265864" rx="67.3693973" ry="67.3693973"></ellipse>
            <path d="M85.8155411,110.855938 L71.8734883,110.855938 C64.4010523,110.855938 57.4472171,107.833154 52.3930081,102.864901 C49.88596,100.314875 47.8573999,97.506981 46.3445754,94.2693074 L29.4083908,94.2693074 L29.4083908,55.5662147 L44.7056822,55.5662147 C46.3474406,47.099555 51.7483386,40.1457198 59.5216204,36.3436023 C63.4096939,34.3580201 67.5126572,33.4497524 71.8763535,33.4497524 L88.462984,33.4497524 C91.5316109,33.4497524 93.9928158,35.9109574 93.9928158,38.9795843 C93.9928158,42.0482112 91.5316109,44.5094162 88.462984,44.5094162 L71.8763535,44.5094162 C70.4953282,44.5094162 69.1114376,45.8904415 69.1114376,47.2743321 C69.1114376,48.6582227 70.4953282,50.039248 71.8763535,50.039248 L112.542107,50.039248 C115.610734,50.039248 118.071939,52.500453 118.071939,55.5690799 C118.071939,58.6377068 115.610734,61.0989118 112.542107,61.0989118 L85.698068,61.0989118 C84.3141774,61.0989118 82.9331521,62.4799372 82.9331521,63.8638277 C82.9331521,65.2477183 84.3141774,66.6287437 85.698068,66.6287437 L99.6745032,66.6287437 C102.74313,66.6287437 105.204335,69.0899486 105.204335,72.1585755 C105.204335,75.2272024 102.74313,77.6884074 99.6745032,77.6884074 L85.698068,77.6884074 C84.3141774,77.6884074 82.9331521,79.0694328 82.9331521,80.4533233 C82.9331521,81.8372139 84.3141774,83.2182393 85.698068,83.2182393 L93.4197762,83.2182393 C96.4884032,83.2182393 98.9496081,85.6794442 98.9496081,88.7480711 C98.9496081,91.816698 96.4884032,94.277903 93.4197762,94.277903 L85.698068,94.277903 C84.3141774,94.277903 82.9331521,95.6589284 82.9331521,97.0428189 C82.9331521,98.4267095 84.3141774,99.8077349 85.698068,99.8077349 L85.8184063,99.8077349 C88.8870332,99.8077349 91.3482382,102.26894 91.3482382,105.337567 C91.3425078,108.394733 88.8813028,110.855938 85.8155411,110.855938 L85.8155411,110.855938 Z" id="Shape" fill="#FFFFFF" sketch:type="MSShapeGroup"></path>
        </g>
    </g>
</svg>