<?xml version="1.0" encoding="UTF-8" standalone="no"?>
<svg width="136px" height="136px" viewBox="0 0 136 136" version="1.1" xmlns="http://www.w3.org/2000/svg" xmlns:xlink="http://www.w3.org/1999/xlink" xmlns:sketch="http://www.bohemiancoding.com/sketch/ns">
    <!-- Generator: Sketch 3.3.2 (12043) - http://www.bohemiancoding.com/sketch -->
    <title>Group</title>
    <desc>Created with Sketch.</desc>
    <defs></defs>
    <g id="Page-1" stroke="none" stroke-width="1" fill="none" fill-rule="evenodd" sketch:type="MSPage">
        <g id="Group" sketch:type="MSLayerGroup" transform="translate(0.000000, -1.658079)">
            <circle id="Oval" fill="#E86B5F" sketch:type="MSShapeGroup" cx="68.002854" cy="69.8423177" r="67.3696429"></circle>
            <path d="M98.1992843,29.5775454 C103.783575,29.5775454 108.264761,34.0587312 108.264761,39.6430221 L108.264761,84.9419655 C108.264761,90.5262565 103.783575,95.0074423 98.1992843,95.0074423 L73.0341598,95.0074423 L73.0341598,100.041613 L88.1338076,100.041613 C91.2024456,100.041613 93.7180985,102.832326 93.2052263,105.820738 C92.692354,108.336391 90.491874,110.10709 87.9762211,110.10709 L47.9463958,110.10709 C44.8777577,110.10709 42.3621048,107.316377 42.8749771,104.327965 C43.3878494,101.812312 45.5883294,100.041613 48.1068475,100.041613 L62.968683,100.041613 L62.968683,95.0074423 L37.8035584,95.0074423 C32.2221326,95.0074423 27.7380816,90.5262565 27.7380816,84.9419655 L27.7380816,39.6430221 C27.7380816,34.0587312 32.2221326,29.5775454 37.8035584,29.5775454 L98.1992843,29.5775454 L98.1992843,29.5775454 Z M98.1992843,84.9391003 L98.1992843,39.6401569 L37.8035584,39.6401569 L37.8035584,84.9391003 L98.1992843,84.9391003 L98.1992843,84.9391003 Z" id="Shape" fill="#FFFFFF" sketch:type="MSShapeGroup"></path>
            <path d="M73.3636587,71.6158817 C68.3581398,71.6158817 64.2866788,67.5444207 64.2866788,62.5389017 C64.2866788,57.5333828 68.3581398,53.4619218 73.3636587,53.4619218 C78.3691776,53.4619218 82.4406386,57.5333828 82.4406386,62.5389017 C82.4406386,67.5444207 78.3720428,71.6158817 73.3636587,71.6158817 L73.3636587,71.6158817 Z M73.3636587,58.9029524 C71.3608781,58.9029524 69.7305746,60.5332559 69.7305746,62.5360365 C69.7305746,64.5388171 71.3608781,66.1691207 73.3636587,66.1691207 C75.3664393,66.1691207 76.9967429,64.5388171 76.9967429,62.5360365 C76.9967429,60.5332559 75.3693045,58.9029524 73.3636587,58.9029524 L73.3636587,58.9029524 Z" id="Shape" fill="#FFFFFF" sketch:type="MSShapeGroup"></path>
            <rect id="Rectangle-path" fill="#FFFFFF" sketch:type="MSShapeGroup" x="87.176828" y="53.5564737" width="5.44389579" height="17.9648561"></rect>
            <rect id="Rectangle-path" fill="#FFFFFF" sketch:type="MSShapeGroup" x="54.2670454" y="53.5564737" width="5.44389579" height="17.9648561"></rect>
            <rect id="Rectangle-path" fill="#FFFFFF" sketch:type="MSShapeGroup" x="43.4709404" y="53.5564737" width="5.44389579" height="17.9648561"></rect>
        </g>
    </g>
</svg>