<?xml version="1.0" encoding="UTF-8" standalone="no"?>
<svg width="136px" height="136px" viewBox="0 0 136 136" version="1.1" xmlns="http://www.w3.org/2000/svg" xmlns:xlink="http://www.w3.org/1999/xlink" xmlns:sketch="http://www.bohemiancoding.com/sketch/ns">
    <!-- Generator: Sketch 3.3.2 (12043) - http://www.bohemiancoding.com/sketch -->
    <title>Oval + Shape</title>
    <desc>Created with Sketch.</desc>
    <defs></defs>
    <g id="Page-1" stroke="none" stroke-width="1" fill="none" fill-rule="evenodd" sketch:type="MSPage">
        <g id="Oval-+-Shape" sketch:type="MSLayerGroup" transform="translate(0.213161, -2.225920)">
            <ellipse id="Oval" fill="#E1AB4E" sketch:type="MSShapeGroup" cx="67.9481673" cy="70.0053793" rx="67.3693973" ry="67.3693973"></ellipse>
            <path d="M79.9791331,57.2839008 C82.0248844,61.0573664 83.0076472,65.2262293 83.0076472,69.8678498 C83.0076472,79.9734027 77.7786611,88.898494 69.2461019,93.8524211 C60.7135427,98.8063482 49.9403987,98.8063482 41.4078395,93.8524211 C32.8752803,88.898494 27.6462942,79.9734027 27.6462942,69.8678498 C27.6462942,59.762297 32.8781455,50.8372056 41.4078395,45.8832785 C45.6941755,43.4048824 50.2956832,42.1871733 55.3670835,42.1871733 C57.0575502,42.1871733 59.2207746,42.3447592 61.8940042,42.6971785 C58.0403131,45.4506337 55.0519117,48.6338685 52.8485745,52.2526134 C48.5622385,52.8800917 44.7486602,55.0461813 42.0754306,58.111943 C39.402201,61.1777047 37.7489818,65.2663421 37.7489818,69.6329036 C37.7489818,74.4693576 39.7145075,78.9906398 42.8604948,82.0965143 C46.0064821,85.2453668 50.4876515,87.2481401 55.3241055,87.2481401 C59.2179094,87.2481401 62.8739019,86.030431 65.7820777,83.8270938 C68.6931187,81.6667346 70.8534779,78.7929412 72.0740522,75.1799267 C72.6642829,73.3719868 72.9393419,71.521069 72.9393419,69.6329036 C72.9393419,66.8823137 72.3118636,64.2491968 70.9337034,61.573102 C72.4665843,59.8425225 74.3547497,58.5818355 76.6354472,57.836884 C77.7786611,57.4815995 78.8788971,57.2839008 79.9791331,57.2839008 L79.9791331,57.2839008 Z M66.6101199,45.8832785 C70.8964559,43.4048824 75.4979636,42.1871733 80.5693638,42.1871733 C85.6407641,42.1871733 90.5173308,43.5624683 94.5687206,46.0007517 C98.6172452,48.4419002 102.078404,51.9775544 104.516688,56.026079 C106.874745,60.1576943 108.252906,65.0715086 108.252906,70.145774 C108.252906,77.7356832 105.147031,84.8098567 100.193104,89.7637838 C95.2391769,94.7177109 88.1621382,97.8264506 80.572229,97.8264506 C78.2141712,97.8264506 76.0509468,97.5513916 74.0453083,97.0786339 C77.936247,94.285066 80.9246484,91.141944 83.0878728,87.5231991 C88.7122562,86.855608 93.5085974,83.4345617 96.181827,78.3230487 C97.5198744,75.7271795 98.1874655,73.0138371 98.1874655,70.1056613 C98.1874655,65.2663421 96.2219398,60.7851726 93.0759525,57.6420506 C89.9299653,54.5333109 85.4487958,52.5305376 80.6123418,52.5305376 C75.7758878,52.5305376 71.2918532,54.5333109 68.1487311,57.6420506 C65.0027439,60.7880378 63.0372181,65.2663421 63.0372181,70.1056613 C63.0372181,72.7760257 63.744922,75.4521205 65.0829694,78.1253501 C63.5500886,79.8559296 61.6619232,81.1166166 59.3812257,81.8615681 C58.2781245,82.2139874 57.1778885,82.4116861 56.040405,82.4116861 C54.0347665,78.6382205 53.0118908,74.4664924 53.0118908,69.8277371 C53.0118908,59.7221842 58.2408769,50.7970929 66.7734361,45.8431658 L66.6101199,45.8832785 L66.6101199,45.8832785 Z" id="Shape" fill="#FFFFFF" sketch:type="MSShapeGroup"></path>
        </g>
    </g>
</svg>