<?xml version="1.0" encoding="UTF-8" standalone="no"?>
<svg width="136px" height="136px" viewBox="0 0 136 136" version="1.1" xmlns="http://www.w3.org/2000/svg" xmlns:xlink="http://www.w3.org/1999/xlink" xmlns:sketch="http://www.bohemiancoding.com/sketch/ns">
    <!-- Generator: Sketch 3.3.2 (12043) - http://www.bohemiancoding.com/sketch -->
    <title>Oval + Shape</title>
    <desc>Created with Sketch.</desc>
    <defs></defs>
    <g id="Page-1" stroke="none" stroke-width="1" fill="none" fill-rule="evenodd" sketch:type="MSPage">
        <g id="Oval-+-Shape" sketch:type="MSLayerGroup" transform="translate(-1.184144, -2.225920)">
            <ellipse id="Oval" fill="#44A9A2" sketch:type="MSShapeGroup" cx="69.320597" cy="70.0053793" rx="67.3693973" ry="67.3693973"></ellipse>
            <path d="M88.1535426,57.4214303 C96.645989,64.9712267 101.995313,76.5695476 101.995313,85.1021069 C101.995313,90.7236251 100.539793,95.4827187 98.1817351,98.903765 C95.7434517,102.324811 92.2822927,104.995176 88.5088271,106.685642 C84.7353615,108.416222 80.1338538,109.47921 75.9248781,109.90899 C71.6385421,110.381748 66.959674,110.381748 62.7535635,109.90899 C58.4672275,109.47921 53.8657198,108.416222 50.0922542,106.685642 C46.3187886,104.995176 42.8576296,102.324811 40.4995718,98.903765 C38.0612884,95.4827187 36.6458806,90.7236251 36.6458806,85.1021069 C36.6458806,76.5695476 41.995205,64.9712267 50.4876515,57.4214303 L88.1535426,57.4214303 L88.1535426,57.4214303 Z M92.0072337,47.3559902 C92.0072337,50.1495582 89.766649,52.3901429 86.9730811,52.3901429 L51.7426082,52.3901429 C48.9519055,52.3901429 46.7084555,50.1495582 46.7084555,47.3559902 C46.7084555,44.5624223 48.9490403,42.3218376 51.7426082,42.3218376 L55.0060685,42.3218376 L46.7084555,32.2563975 L46.9434018,32.0185861 C48.7513416,30.4857052 50.3243352,29.7378886 51.739743,29.7378886 C55.7109072,29.7378886 59.4070124,31.8982478 61.8452958,36.2648093 C62.2779407,34.7319285 62.9856446,33.3566335 64.2033537,31.9784733 C65.3437024,30.6031784 67.2318678,29.7378886 69.392227,29.7378886 C71.1228065,29.7378886 72.6958001,30.3281194 73.7960361,31.2306567 C74.8962721,32.1360592 75.7615618,33.3938811 76.2744323,34.5342298 C76.5494912,35.1273258 76.7471899,35.7146913 76.9047758,36.3049221 C79.3430592,31.9383606 83.0391644,29.7780014 87.0103286,29.7780014 C88.4257364,29.7780014 89.99873,30.525818 91.8066699,32.0586989 L92.0416161,32.2965103 L83.7440031,42.3619504 L87.0074634,42.3619504 C89.7981662,42.3619504 92.0416161,44.6025351 92.0416161,47.396103 L92.0072337,47.3559902 L92.0072337,47.3559902 Z M71.7588804,96.153175 C76.1225768,95.6403046 79.0737306,92.8496019 79.0737306,88.6434914 C79.0737306,84.9473862 76.9506189,82.6265759 72.5066971,81.5635875 L67.7504686,80.5808246 C66.4926468,80.3086308 65.7047173,79.5608142 65.7047173,78.5780513 C65.7047173,77.7929871 66.0571367,77.1998912 66.5700071,76.8474718 C67.0800123,76.4921873 67.827829,76.2973538 68.7332315,76.2973538 C70.6987572,76.2973538 71.9565791,77.0451705 72.5468098,78.5780513 L78.8387843,78.5780513 C78.5236126,76.2601063 77.4634894,74.3719409 75.4177381,72.9565331 C74.3547497,72.2058513 73.1771534,71.7359588 71.8018584,71.4608998 L71.8018584,67.4496228 L66.7677057,67.4496228 L66.7677057,71.4608998 C62.4011442,72.2459641 59.4528556,75.2773434 59.4528556,79.2857552 C59.4528556,81.8816245 60.7106775,83.8471502 62.5587301,84.9072734 C63.4612674,85.4201438 64.5242558,85.8126759 65.7419649,86.1278477 L70.5383061,87.1106106 C71.3233703,87.2653312 71.8362408,87.4229171 72.2688856,87.7380889 C72.6241702,88.0532607 72.8190036,88.5231531 72.8190036,89.1133839 C72.8190036,90.6462647 71.6385421,91.3969466 69.5154305,91.3969466 C67.3149585,91.3969466 65.9769111,90.5717696 65.5041535,88.8813028 L58.9772328,88.8813028 C59.7250494,92.8925798 62.4383918,95.4082236 66.7619754,96.1932878 L66.7619754,100.204565 L71.796128,100.204565 L71.7588804,96.153175 L71.7588804,96.153175 Z" id="Shape" fill="#FFFFFF" sketch:type="MSShapeGroup"></path>
        </g>
    </g>
</svg>